<svg xmlns="http://www.w3.org/2000/svg" width="18" height="15" fill="none" viewBox="0 0 18 15">
  <path fill="#fff" d="M17.28 0H.72C.322 0 0 .268 0 .6v13.8c0 .332.322.6.72.6h16.56c.398 0 .72-.268.72-.6V.6c0-.332-.322-.6-.72-.6Zm-.9 13.65H1.62V1.35h14.76v12.3ZM8.55 5.4h4.14c.099 0 .18-.068.18-.15v-.9c0-.082-.081-.15-.18-.15H8.55c-.099 0-.18.067-.18.15v.9c0 .082.081.15.18.15Zm0 2.7h4.14c.099 0 .18-.067.18-.15v-.9c0-.082-.081-.15-.18-.15H8.55c-.099 0-.18.067-.18.15v.9c0 .083.081.15.18.15Zm0 2.7h4.14c.099 0 .18-.068.18-.15v-.9c0-.082-.081-.15-.18-.15H8.55c-.099 0-.18.068-.18.15v.9c0 .082.081.15.18.15Zm-3.42-6c0 .199.095.39.264.53.168.141.397.22.636.22a.999.999 0 0 0 .636-.22.693.693 0 0 0 .264-.53.693.693 0 0 0-.264-.53.999.999 0 0 0-.636-.22.999.999 0 0 0-.636.22.693.693 0 0 0-.264.53Zm0 2.7c0 .199.095.39.264.53.168.141.397.22.636.22a.999.999 0 0 0 .636-.22.693.693 0 0 0 .264-.53.693.693 0 0 0-.264-.53.999.999 0 0 0-.636-.22.999.999 0 0 0-.636.22.693.693 0 0 0-.264.53Zm0 2.7c0 .199.095.39.264.53.168.141.397.22.636.22a.998.998 0 0 0 .636-.22.693.693 0 0 0 .264-.53.693.693 0 0 0-.264-.53.999.999 0 0 0-.636-.22.999.999 0 0 0-.636.22.693.693 0 0 0-.264.53Z"/>
</svg>
