<svg xmlns="http://www.w3.org/2000/svg" width="18" height="15" fill="none" viewBox="0 0 18 15">
  <path fill="#fff" d="M0 2.625C0 1.176 1.008 0 2.25 0h13.5C16.992 0 18 1.176 18 2.625v9.75c0 .696-.237 1.364-.659 1.856-.422.492-.994.769-1.591.769H2.25c-.597 0-1.169-.277-1.591-.769C.237 13.74 0 13.071 0 12.375v-9.75ZM2.25 1.5a.9.9 0 0 0-.682.33c-.18.21-.282.497-.282.795v9.75c0 .621.432 1.125.964 1.125h13.5a.9.9 0 0 0 .682-.33c.18-.21.282-.497.282-.795v-9.75c0-.298-.101-.585-.282-.796a.9.9 0 0 0-.682-.329H2.25Zm8.679 3a.6.6 0 0 0-.455.22.818.818 0 0 0-.188.53c0 .199.067.39.188.53a.6.6 0 0 0 .455.22h3.857a.6.6 0 0 0 .454-.22.818.818 0 0 0 .189-.53.818.818 0 0 0-.189-.53.6.6 0 0 0-.454-.22h-3.857Zm0 4.5a.6.6 0 0 0-.455.22.818.818 0 0 0-.188.53c0 .199.067.39.188.53a.6.6 0 0 0 .455.22h3.857a.6.6 0 0 0 .454-.22.818.818 0 0 0 .189-.53.818.818 0 0 0-.189-.53.6.6 0 0 0-.454-.22h-3.857Zm-5.45-1.929c.229 0 .455-.053.667-.155.212-.102.404-.252.566-.441.162-.19.29-.414.378-.66a2.333 2.333 0 0 0 0-1.558 2.086 2.086 0 0 0-.378-.66 1.754 1.754 0 0 0-.566-.442A1.531 1.531 0 0 0 5.478 3c-.462 0-.906.214-1.233.596a2.22 2.22 0 0 0-.511 1.44c0 .54.184 1.057.51 1.439.328.382.772.596 1.234.596ZM3.674 8.088a1.03 1.03 0 0 0-.78.377 1.403 1.403 0 0 0-.324.91c0 .559.16 1.101.455 1.541.295.44.707.753 1.172.889l.068.021a4.302 4.302 0 0 0 2.425 0l.07-.02a2.15 2.15 0 0 0 1.17-.888c.296-.44.456-.983.456-1.541 0-.17-.029-.337-.084-.493a1.32 1.32 0 0 0-.239-.419 1.11 1.11 0 0 0-.358-.279.968.968 0 0 0-.422-.098h-3.61Z"/>
</svg>
