<svg xmlns="http://www.w3.org/2000/svg" width="18" height="18" fill="none" viewBox="0 0 18 18">
  <path fill="#fff" d="M15.158 12.852V8.1L18 5.4l-3.79-3.6-2.842 2.7H4.737v-.9h2.842V0H0v3.6h2.842V9H0v3.6h2.842v4.5h4.055c.165.272.403.498.688.656a1.971 1.971 0 0 0 1.891.008c.29-.157.53-.384.698-.657a1.731 1.731 0 0 0 .007-1.802 1.85 1.85 0 0 0-.692-.662 1.972 1.972 0 0 0-1.897-.003 1.85 1.85 0 0 0-.695.66h-2.16v-2.7h2.842V9H4.737V6.3h6.631l1.895 1.8v4.743a1.832 1.832 0 0 0-.803.87c-.16.366-.188.772-.08 1.155.108.382.346.72.677.962a1.96 1.96 0 0 0 1.153.372c.418 0 .823-.13 1.154-.372.33-.241.569-.58.677-.962.108-.383.08-.789-.08-1.155a1.832 1.832 0 0 0-.803-.87v.009ZM.948 2.7V.9h5.684v1.8H.947Zm7.578 12.6c.188 0 .37.053.527.152.155.098.277.24.349.404a.86.86 0 0 1 .053.52.887.887 0 0 1-.259.46.965.965 0 0 1-.485.247.994.994 0 0 1-.547-.051.94.94 0 0 1-.425-.332.868.868 0 0 1 .117-1.136.973.973 0 0 1 .67-.264ZM6.632 9.9v1.8H.947V9.9h5.685Zm7.579-6.831L16.663 5.4 14.21 7.731 11.758 5.4l2.454-2.331Zm0 12.231a.983.983 0 0 1-.527-.152.912.912 0 0 1-.349-.404.858.858 0 0 1-.054-.52.886.886 0 0 1 .26-.46.963.963 0 0 1 .485-.247.993.993 0 0 1 .547.052.938.938 0 0 1 .425.331.868.868 0 0 1-.118 1.136.973.973 0 0 1-.67.264Z"/>
</svg>
