<svg xmlns="http://www.w3.org/2000/svg" width="18" height="16" fill="none" viewBox="0 0 18 16">
  <path fill="#fff" fill-rule="evenodd" d="M14 2.824a2.74 2.74 0 0 0-.879-1.997A3.098 3.098 0 0 0 11 0H7c-.796 0-1.559.297-2.121.827A2.742 2.742 0 0 0 4 2.824H3c-.796 0-1.559.297-2.121.827A2.742 2.742 0 0 0 0 5.647v7.53c0 .748.316 1.466.879 1.996C1.44 15.703 2.204 16 3 16h12c.796 0 1.559-.297 2.121-.827.563-.53.879-1.248.879-1.996v-7.53c0-.749-.316-1.467-.879-1.996A3.098 3.098 0 0 0 15 2.824h-1Zm-3-.942H7c-.265 0-.52.1-.707.276A.914.914 0 0 0 6 2.824h6a.914.914 0 0 0-.293-.666A1.033 1.033 0 0 0 11 1.882ZM3 4.706h12c.265 0 .52.099.707.276a.914.914 0 0 1 .293.665v7.53a.91.91 0 0 1-.293.665 1.033 1.033 0 0 1-.707.276H3c-.265 0-.52-.1-.707-.276A.914.914 0 0 1 2 13.177v-7.53a.91.91 0 0 1 .293-.665A1.03 1.03 0 0 1 3 4.706Z" clip-rule="evenodd"/>
</svg>
