<svg xmlns="http://www.w3.org/2000/svg" width="19" height="32" fill="none" viewBox="0 0 19 32">
  <path fill="#000" d="M9.5 5.965c.245 0 .48.102.654.283a.99.99 0 0 1 .271.684v3.867a.99.99 0 0 1-.27.684.906.906 0 0 1-.655.283.905.905 0 0 1-.654-.283.99.99 0 0 1-.271-.684V6.933a.99.99 0 0 1 .27-.684.906.906 0 0 1 .655-.283Zm7.402 15.471c0 2.052-.78 4.02-2.168 5.47-1.388 1.45-3.27 2.266-5.234 2.266-1.963 0-3.846-.815-5.234-2.266-1.389-1.45-2.169-3.418-2.169-5.47V9.833c0-2.052.78-4.02 2.169-5.47C5.654 2.912 7.536 2.097 9.5 2.097c1.963 0 3.846.815 5.234 2.266 1.389 1.45 2.168 3.418 2.168 5.47v11.603ZM9.5.163c-2.454 0-4.808 1.019-6.543 2.832C1.222 4.81.247 7.268.247 9.833v11.603c0 2.564.975 5.024 2.71 6.837 1.735 1.814 4.089 2.833 6.543 2.833 2.454 0 4.808-1.02 6.543-2.833 1.735-1.813 2.71-4.273 2.71-6.837V9.833c0-2.565-.975-5.024-2.71-6.838C14.308 1.182 11.954.163 9.5.163Z"/>
</svg>
