<svg xmlns="http://www.w3.org/2000/svg" width="25" height="23" fill="none" viewBox="0 0 25 23">
  <path fill="#000" d="M25 8.812a1.923 1.923 0 0 0-.968-1.671L13.5.89a1.984 1.984 0 0 0-2 0L.954 7.14a1.953 1.953 0 0 0 0 3.359l3 1.75v4.39a2 2 0 0 0 .969 1.704l6.64 3.828a2 2 0 0 0 1.938 0l6.64-3.828a2 2 0 0 0 .97-1.704v-4.437l1.937-1.14v4.25H25v-6.5Zm-5.827 7.813L12.5 20.469 5.907 16.64v-3.234l5.594 3.328a2.016 2.016 0 0 0 2 0l5.656-3.375.016 3.266ZM12.5 15.047 1.954 8.797 12.5 2.53l10.547 6.25L12.5 15.047Z"/>
</svg>
