<svg xmlns="http://www.w3.org/2000/svg" width="20" height="16" fill="none" viewBox="0 0 20 16">
  <path fill="#000" d="M8.484.4C3.432.4.4 4.453.4 6.48s1.01 3.547 3.032 3.547c2.02 0 3.032.506 3.032 2.026C6.464 14.08 7.979 15.6 10 15.6c6.57 0 9.6-3.546 9.6-7.092C19.6 2.427 14.546.4 8.484.4ZM7.221 2.427a1.265 1.265 0 0 1 1.263 1.266c0 .7-.565 1.267-1.263 1.267a1.265 1.265 0 0 1-.894-2.162 1.265 1.265 0 0 1 .894-.371Zm4.042 0a1.265 1.265 0 0 1 .894 2.161 1.265 1.265 0 0 1-1.788 0 1.265 1.265 0 0 1 0-1.79c.237-.237.558-.37.894-.371Zm4.042 2.026a1.264 1.264 0 0 1 1.168 1.751 1.266 1.266 0 0 1-1.652.686 1.264 1.264 0 0 1-.683-1.654 1.264 1.264 0 0 1 1.167-.783ZM3.685 5.467a1.264 1.264 0 0 1 1.262 1.266c0 .7-.565 1.267-1.263 1.267a1.265 1.265 0 0 1 0-2.533ZM10 10.533c.837 0 1.516.68 1.516 1.52s-.679 1.52-1.516 1.52a1.518 1.518 0 0 1-1.401-2.1 1.518 1.518 0 0 1 1.401-.94Z"/>
</svg>
