<svg xmlns="http://www.w3.org/2000/svg" width="16" height="16" fill="none" viewBox="0 0 16 16">
  <path fill="#000" d="M8.078 11.145c0 .085.067.156.147.156h3.613c.08 0 .146-.07.146-.156v-.938c0-.086-.066-.156-.146-.156H8.225c-.08 0-.147.07-.147.156v.938Zm-3.807.119 3.75-3.145a.157.157 0 0 0 0-.24l-3.75-3.143a.155.155 0 0 0-.255.12V6.08c0 .047.02.09.056.12L6.217 8 4.072 9.8a.158.158 0 0 0-.056.12v1.225c0 .132.154.205.255.119ZM15.187.188H.813a.624.624 0 0 0-.625.625v14.374c0 .346.279.626.625.626h14.374c.346 0 .626-.28.626-.626V.813a.624.624 0 0 0-.626-.625Zm-.78 14.218H1.593V1.594h12.812v12.812Z"/>
</svg>
