<svg xmlns="http://www.w3.org/2000/svg" width="25" height="25" fill="none" viewBox="0 0 25 25">
  <path fill="#000" d="M24.871 22.628 23.066 17.5h-1.981l1.1 5H2.815l1.1-5h-1.98L.128 22.628C-.33 23.933.482 25 1.935 25h21.131c1.453 0 2.265-1.067 1.805-2.372ZM19.104 6.25c0-1.658-.696-3.247-1.934-4.42C15.93.659 14.252 0 12.5 0c-1.75 0-3.43.658-4.67 1.83-1.236 1.174-1.932 2.763-1.932 4.42 0 5.969 6.603 12.5 6.603 12.5s6.604-6.531 6.604-12.5Zm-10.17.075c0-.443.093-.882.272-1.291.18-.41.442-.782.773-1.095a3.585 3.585 0 0 1 1.157-.731c.433-.17.896-.257 1.364-.257a3.67 3.67 0 0 1 2.521.989 3.285 3.285 0 0 1 1.045 2.386c0 .895-.376 1.753-1.045 2.386a3.67 3.67 0 0 1-2.52.988 3.67 3.67 0 0 1-2.522-.989 3.286 3.286 0 0 1-1.045-2.386Z"/>
</svg>
