<svg xmlns="http://www.w3.org/2000/svg" width="20" height="21" fill="none" viewBox="0 0 20 21">
  <path fill="#fff" fill-rule="evenodd" d="M10 1.606c-5.046 0-9.13 4.24-9.13 9.463 0 3.835 2.202 7.135 5.372 8.62a.841.841 0 0 0 .909-.105c.14-.114.253-.26.33-.427.077-.167.116-.35.113-.536v-.495l-1.13-.16a.424.424 0 0 1-.026-.005c-.623-.127-1.044-.355-1.352-.685-.26-.277-.418-.61-.552-.891l-.046-.098a10.28 10.28 0 0 0-.406-.792c-.113-.186-.2-.281-.287-.341-.22-.153-.432-.41-.432-.733a.649.649 0 0 1 .217-.487.684.684 0 0 1 .455-.159c.185 0 .36.06.504.127.149.07.296.162.434.258.335.233.665.508.944.848.29.353.496.578.806.624.255.038.515.039.718.03.028-.168.074-.331.138-.488a6.724 6.724 0 0 1-.73-.222c-.546-.202-1.153-.516-1.562-.992-.448-.523-.725-.99-.88-1.536-.151-.532-.176-1.109-.176-1.818 0-1.087.45-2.003.789-2.489a7.807 7.807 0 0 1-.28-1.305 3.188 3.188 0 0 1 .002-.842c.041-.255.146-.568.42-.756.264-.184.574-.176.816-.129.25.05.511.158.751.283.391.201.78.47 1.07.7.502-.154 1.39-.353 2.192-.37h.018c.803.017 1.651.216 2.14.369a7.15 7.15 0 0 1 1.07-.7c.24-.124.5-.232.751-.282.242-.047.552-.055.817.128.273.19.378.502.419.757.042.265.032.562 0 .842a7.81 7.81 0 0 1-.278 1.305c.338.487.789 1.403.789 2.489 0 .71-.025 1.286-.175 1.817-.156.548-.434 1.014-.882 1.537-.408.476-1.016.79-1.56.992a6.82 6.82 0 0 1-.886.258c.103.323.14.585.14.736v2.687c0 .408.182.757.441.96.252.2.575.261.907.11 3.2-1.471 5.428-4.78 5.428-8.635 0-5.221-4.083-9.462-9.13-9.462ZM7.897 16.532c-.217.032-.001 0-.001 0h-.003l-.006.002-.024.003a5.221 5.221 0 0 1-.373.032 4.622 4.622 0 0 1-.888-.037c-.66-.098-1.06-.585-1.32-.901l-.024-.03a3.073 3.073 0 0 0-.273-.29c.086.166.175.35.27.549l.01.017.042.09c.145.303.241.505.4.673.155.166.397.326.886.427l1.495.21a.43.43 0 0 1 .269.152c.07.083.107.19.107.3v.892c0 .696-.312 1.316-.792 1.692a1.675 1.675 0 0 1-1.786.205C2.419 18.894 0 15.28 0 11.069 0 5.337 4.48.697 10 .697s10 4.64 10 10.372c0 4.232-2.45 7.857-5.947 9.466a1.676 1.676 0 0 1-1.781-.215 2.094 2.094 0 0 1-.585-.747 2.188 2.188 0 0 1-.204-.941v-2.687c0-.061-.04-.412-.268-.885a.472.472 0 0 1 .146-.58.426.426 0 0 1 .194-.076c.427-.056.847-.16 1.253-.31.495-.182.94-.433 1.204-.74.392-.458.588-.81.695-1.19.112-.393.14-.851.14-1.558 0-.992-.5-1.826-.73-2.095a.463.463 0 0 1-.086-.455c.148-.438.253-.89.312-1.351.027-.24.029-.44.005-.583a.409.409 0 0 0-.045-.15.389.389 0 0 0-.172.007 2.104 2.104 0 0 0-.528.203 6.39 6.39 0 0 0-1.096.745.425.425 0 0 1-.421.074A7.466 7.466 0 0 0 10 6.607c-.84.02-1.807.27-2.138.394a.416.416 0 0 1-.421-.074 6.457 6.457 0 0 0-1.097-.745 2.116 2.116 0 0 0-.528-.203.389.389 0 0 0-.172-.008.409.409 0 0 0-.045.15c-.023.145-.022.345.005.584.06.46.165.913.313 1.351a.47.47 0 0 1-.087.455c-.23.269-.73 1.103-.73 2.095 0 .706.028 1.165.14 1.559.108.38.303.73.695 1.189.265.307.708.558 1.204.74.406.15.826.254 1.253.31.088.01.17.047.237.107a.472.472 0 0 1 .125.5.452.452 0 0 1-.157.215c-.138.102-.229.287-.28.5a1.76 1.76 0 0 0-.046.335v.016a.466.466 0 0 1-.105.3.431.431 0 0 1-.27.155Z" clip-rule="evenodd"/>
</svg>
