<svg xmlns="http://www.w3.org/2000/svg" width="20" height="21" fill="none" viewBox="0 0 20 21">
  <path fill="#fff" d="M10 6.318a4.583 4.583 0 1 0 0 9.166 4.583 4.583 0 0 0 0-9.166Zm0 8.333a3.75 3.75 0 1 1 0-7.501 3.75 3.75 0 0 1 0 7.5ZM14.583.9H5.417A5.417 5.417 0 0 0 0 6.318v9.166a5.417 5.417 0 0 0 5.417 5.417h9.166A5.417 5.417 0 0 0 20 15.484V6.318A5.417 5.417 0 0 0 14.583.9Zm4.584 14.583a4.583 4.583 0 0 1-4.584 4.583H5.417a4.583 4.583 0 0 1-4.584-4.583V6.318a4.583 4.583 0 0 1 4.584-4.584h9.166a4.583 4.583 0 0 1 4.584 4.584v9.166Zm-2.917-10a.834.834 0 1 1-1.668 0 .834.834 0 0 1 1.668 0Z"/>
</svg>
