<svg xmlns="http://www.w3.org/2000/svg" width="20" height="20" fill="none" viewBox="0 0 20 20">
  <path fill="#fff" d="M4.812 7.004H.892a.485.485 0 0 0-.346.147.505.505 0 0 0-.143.353V19.5c0 .133.051.26.143.354A.485.485 0 0 0 .893 20h3.92c.13 0 .254-.053.346-.146a.505.505 0 0 0 .143-.354V7.504a.505.505 0 0 0-.143-.353.485.485 0 0 0-.347-.147ZM4.322 19h-2.94V8.004h2.94V19ZM15.101 7.004a4.763 4.763 0 0 0-2.94 1.019v-.519a.505.505 0 0 0-.143-.353.485.485 0 0 0-.347-.147h-3.92a.485.485 0 0 0-.346.147.505.505 0 0 0-.143.353V19.5c0 .133.051.26.143.354a.485.485 0 0 0 .347.146h3.92c.13 0 .254-.053.346-.146a.505.505 0 0 0 .143-.354v-5.498c0-.398.155-.78.43-1.06.276-.282.65-.44 1.04-.44s.764.158 1.04.44c.275.28.43.662.43 1.06V19.5c0 .133.051.26.143.354a.485.485 0 0 0 .347.146h3.92a.489.489 0 0 0 .346-.146A.505.505 0 0 0 20 19.5v-7.498a5.056 5.056 0 0 0-1.437-3.532 4.856 4.856 0 0 0-3.462-1.466ZM19.02 19h-2.94v-4.998c0-.663-.258-1.299-.718-1.767a2.425 2.425 0 0 0-1.732-.732c-.65 0-1.273.263-1.732.732a2.525 2.525 0 0 0-.718 1.767V19H8.24V8.004h2.94v1.202a.506.506 0 0 0 .328.472.48.48 0 0 0 .544-.159 3.9 3.9 0 0 1 1.973-1.356 3.83 3.83 0 0 1 2.379.064 3.912 3.912 0 0 1 1.9 1.46c.468.677.719 1.487.715 2.316V19ZM3.212.008a2.622 2.622 0 0 0-.346-.002 2.636 2.636 0 0 0-1.08.152 2.676 2.676 0 0 0-.933.578 2.74 2.74 0 0 0-.63.909A2.787 2.787 0 0 0 0 2.735 2.71 2.71 0 0 0 .826 4.72a2.625 2.625 0 0 0 1.985.741h.028a2.63 2.63 0 0 0 1.037-.134c.333-.114.642-.294.907-.529.266-.235.483-.522.64-.843A2.776 2.776 0 0 0 5.048.942a2.687 2.687 0 0 0-.826-.653 2.638 2.638 0 0 0-1.009-.28Zm-.034 4.457a1.68 1.68 0 0 1-.34-.003H2.81a1.67 1.67 0 0 1-1.294-.468 1.766 1.766 0 0 1 .041-2.564 1.693 1.693 0 0 1 1.31-.424c.449-.042.896.1 1.243.394a1.76 1.76 0 0 1 .22 2.446 1.692 1.692 0 0 1-1.152.619Z"/>
</svg>
