<svg xmlns="http://www.w3.org/2000/svg" width="22" height="22" fill="none" viewBox="0 0 22 22">
  <path stroke="#fff" stroke-linecap="round" stroke-linejoin="round" d="M8.202 3.25h6.194-6.194ZM1 3.25h5.264H1Zm8.542 0 6.132 17.503L9.542 3.25Zm3.133 0 4.566 13.03-4.566-13.03Zm-11.106 0 6.103 17.423L1.57 3.25Zm3.133 0L9.24 16.2 4.702 3.25Zm6.959 6.04L7.672 20.672l3.989-11.384Zm8.164-.385-4.15 11.848 4.15-11.848Zm0 0C20.06 8.035 21 6.735 21 4.865c0-2.933-.899-4.112-2.365-4.112-1.197 0-1.623 1.215-1.623 2.23 0 3.014 2.813 3.43 2.813 5.922Z"/>
</svg>
