<svg xmlns="http://www.w3.org/2000/svg" width="20" height="18" fill="none" viewBox="0 0 20 18">
  <path fill="#fff" fill-rule="evenodd" d="M6.76.01a.542.542 0 0 0-.17-.005C5.468.149 3.757.868 2.746 1.518a.675.675 0 0 0-.176.168c-.42.569-.8 1.495-1.099 2.373-.307.9-.561 1.851-.704 2.539C.293 8.832.035 11.514 0 14.059a.876.876 0 0 0 .075.365c.4.907 1.266 1.749 2.132 2.364.875.622 1.898 1.113 2.721 1.209a.551.551 0 0 0 .29-.047.65.65 0 0 0 .243-.196c.206-.265.557-.882.821-1.363.12-.218.234-.427.322-.594.885.19 1.995.301 3.398.301 1.4 0 2.51-.11 3.395-.3.088.167.2.375.32.592.265.482.616 1.1.823 1.364a.65.65 0 0 0 .243.196.551.551 0 0 0 .29.047c.823-.096 1.845-.587 2.72-1.21.866-.614 1.731-1.456 2.133-2.363a.875.875 0 0 0 .074-.365c-.034-2.545-.293-5.229-.763-7.463a23.312 23.312 0 0 0-.707-2.537c-.298-.878-.68-1.806-1.098-2.373a.675.675 0 0 0-.177-.168c-1.01-.65-2.72-1.37-3.846-1.513a.542.542 0 0 0-.168.004 1.48 1.48 0 0 0-.689.377 4.58 4.58 0 0 0-1.061 1.583 15.854 15.854 0 0 0-1.489-.068c-.537 0-1.035.024-1.493.067A4.56 4.56 0 0 0 7.448.386 1.48 1.48 0 0 0 6.76.01Zm7.944 15.388c.188.343.381.683.579 1.019.53-.143 1.204-.476 1.851-.935.726-.515 1.302-1.11 1.58-1.611-.044-2.387-.293-4.865-.722-6.906a21.65 21.65 0 0 0-.652-2.337c-.267-.789-.555-1.458-.805-1.841-.868-.534-2.238-1.098-3.131-1.252a.816.816 0 0 0-.078.064c-.11.103-.212.22-.302.348a3.935 3.935 0 0 0-.15.23c.407.089.77.195 1.092.312.915.333 1.574.792 1.896 1.3a.869.869 0 0 1 .122.565.796.796 0 0 1-.25.5.605.605 0 0 1-.226.129.544.544 0 0 1-.25.016.632.632 0 0 1-.423-.296c-.079-.124-.422-.46-1.246-.761-.795-.288-1.964-.52-3.587-.52-1.623 0-2.794.232-3.588.522-.823.3-1.166.633-1.245.759a.694.694 0 0 1-.187.198.58.58 0 0 1-.236.098.569.569 0 0 1-.475-.144.733.733 0 0 1-.168-.221.869.869 0 0 1 .039-.844c.322-.51.981-.967 1.896-1.3.32-.118.684-.223 1.09-.312a3.494 3.494 0 0 0-.152-.23 2.218 2.218 0 0 0-.3-.35.815.815 0 0 0-.08-.063c-.891.154-2.261.718-3.13 1.252-.251.385-.537 1.052-.806 1.841a21.92 21.92 0 0 0-.651 2.337c-.43 2.041-.679 4.52-.722 6.905.278.504.853 1.097 1.579 1.614.648.459 1.322.792 1.852.933.2-.334.393-.674.58-1.019-1.05-.442-1.613-1.049-1.98-1.699a.9.9 0 0 1 .002-.846.715.715 0 0 1 .178-.209.59.59 0 0 1 .232-.113.544.544 0 0 1 .25 0c.083.02.161.06.231.115.07.056.13.127.177.21.348.622 1.262 1.721 5.614 1.721 4.353 0 5.266-1.1 5.614-1.72a.65.65 0 0 1 .408-.325.56.56 0 0 1 .482.112.78.78 0 0 1 .274.484.878.878 0 0 1-.095.571c-.366.65-.93 1.258-1.98 1.699ZM5.431 8.227c.326-.416.768-.65 1.23-.653.46.003.903.237 1.23.653.324.416.507.979.507 1.565s-.183 1.149-.508 1.566c-.326.415-.768.65-1.23.652a1.47 1.47 0 0 1-.672-.174 1.732 1.732 0 0 1-.557-.479 2.557 2.557 0 0 1-.508-1.565c0-.586.183-1.149.508-1.565Zm7.913-.653c-.462.003-.904.237-1.23.653-.325.416-.508.979-.508 1.565s.183 1.149.508 1.566c.326.415.768.65 1.23.652.46-.003.903-.237 1.23-.652.324-.417.507-.98.507-1.566 0-.586-.183-1.149-.508-1.565a1.731 1.731 0 0 0-.557-.479 1.47 1.47 0 0 0-.672-.174Z" clip-rule="evenodd"/>
</svg>
