<svg xmlns="http://www.w3.org/2000/svg" width="22" height="20" fill="none" viewBox="0 0 22 20">
  <path stroke="#fff" stroke-linecap="round" stroke-linejoin="round" d="M18.968 5.51v.595c0 5.985-4.13 12.844-11.687 12.844-2.23.005-4.414-.708-6.281-2.05.324.048.651.07.978.065 1.85.005 3.647-.673 5.103-1.926a3.853 3.853 0 0 1-2.381-.89 4.51 4.51 0 0 1-1.457-2.254c.256.06.517.09.779.089.365 0 .729-.054 1.08-.16-.93-.205-1.767-.758-2.367-1.566a4.785 4.785 0 0 1-.924-2.863v-.06c.57.35 1.207.542 1.86.56-.869-.628-1.485-1.597-1.726-2.708a4.872 4.872 0 0 1 .433-3.272A11.949 11.949 0 0 0 6.16 5.266c1.46.813 3.06 1.279 4.695 1.368a4.148 4.148 0 0 1-.113-1.035 4.827 4.827 0 0 1 .655-2.605 4.194 4.194 0 0 1 1.897-1.72 3.736 3.736 0 0 1 2.451-.208 4.03 4.03 0 0 1 2.116 1.377 7.983 7.983 0 0 0 2.61-1.1c-.306 1.065-.959 1.969-1.832 2.539A7.997 7.997 0 0 0 21 3.132a8.957 8.957 0 0 1-2.032 2.378Z"/>
</svg>
