<svg xmlns="http://www.w3.org/2000/svg" width="18" height="20" fill="none" viewBox="0 0 18 20">
  <path fill="#000" d="M0 3.75C0 2.491 1.264 1.556 2.75.971 4.3.361 6.393 0 8.665 0c2.272 0 4.364.361 5.915.971 1.486.585 2.75 1.52 2.75 2.779v12.5c0 1.259-1.264 2.194-2.75 2.779-1.55.608-3.643.971-5.915.971-2.272 0-4.364-.361-5.915-.971C1.264 18.444 0 17.509 0 16.25V3.75Zm1.444 0c0 .468.514 1.094 1.904 1.641 1.322.52 3.203.859 5.317.859 2.114 0 3.995-.338 5.317-.859 1.39-.547 1.904-1.175 1.904-1.641 0-.467-.514-1.094-1.904-1.641-1.322-.52-3.203-.859-5.317-.859-2.114 0-3.995.337-5.317.859-1.39.547-1.904 1.175-1.904 1.641Zm14.442 2.122a7.437 7.437 0 0 1-1.306.657c-1.55.61-3.643.971-5.915.971-2.272 0-4.364-.361-5.915-.971a7.44 7.44 0 0 1-1.306-.657V16.25c0 .468.514 1.094 1.904 1.641 1.322.52 3.203.859 5.317.859 2.114 0 3.995-.337 5.317-.859 1.39-.547 1.904-1.175 1.904-1.641V5.872Z"/>
</svg>
