<svg xmlns="http://www.w3.org/2000/svg" width="27" height="27" fill="none" viewBox="0 0 27 27">
  <path stroke="#000" stroke-linecap="round" stroke-linejoin="round" stroke-width="1.667" d="M11.693 6.3 7.464 1.42c-.487-.562-1.381-.56-1.947.007L2.039 4.911C1.004 5.947.708 7.486 1.307 8.72a36.507 36.507 0 0 0 16.95 16.974c1.233.598 2.77.302 3.806-.734l3.51-3.516c.568-.569.57-1.468.002-1.955l-4.9-4.206c-.512-.44-1.309-.383-1.822.132l-1.705 1.708a.577.577 0 0 1-.692.11 18.195 18.195 0 0 1-6.7-6.709.579.579 0 0 1 .11-.692l1.7-1.701c.515-.518.572-1.318.127-1.831v0Z"/>
</svg>
